<?xml version="1.0" encoding="utf-8"?>
<!-- Generator: Adobe Illustrator 28.0.0, SVG Export Plug-In . SVG Version: 6.00 Build 0)  -->
<svg version="1.1" id="Laag_1" xmlns="http://www.w3.org/2000/svg" xmlns:xlink="http://www.w3.org/1999/xlink" x="0px" y="0px"
	 viewBox="0 0 841.89 595.28" style="enable-background:new 0 0 841.89 595.28;" xml:space="preserve">
<style type="text/css">
	.st0{fill:#72190D;}
	.st1{fill:#EE7411;}
</style>
<g>
	<path class="st0" d="M200.31,339.63c-6.19,0-11.21-0.72-15.07-2.16c-3.85-1.44-6.86-3.57-9.02-6.37
		c-2.16-2.81-3.63-6.26-4.43-10.37c-0.79-4.11-1.19-8.78-1.19-14.04l0-45.9h11.34l0,46.11c0,4.53,0.25,8.28,0.75,11.23
		s1.44,5.29,2.81,7.02c1.37,1.73,3.24,2.93,5.61,3.62c2.38,0.68,5.44,1.03,9.18,1.03c3.74,0,6.8-0.34,9.18-1.02
		c2.38-0.68,4.25-1.89,5.62-3.62c1.37-1.73,2.3-4.07,2.81-7.02c0.5-2.95,0.76-6.7,0.76-11.23l0-46.11h11.34l0,45.9
		c0,5.26-0.4,9.93-1.19,14.04c-0.79,4.1-2.27,7.56-4.43,10.37c-2.16,2.81-5.18,4.93-9.07,6.37
		C211.43,338.92,206.42,339.63,200.31,339.63z"/>
	<path class="st0" d="M285.19,260.8l0,66.74l38.99,0l-2.06,10.15l-48.27,0l0.01-76.89H285.19z"/>
	<path class="st0" d="M409.49,260.81l-2.05,10.15l-25.6,0l-0.01,66.74H370.5l0.01-66.74h-27l2.05-10.15L409.49,260.81z"/>
	<path class="st0" d="M477.41,339.65c-6.19,0-11.21-0.72-15.07-2.16c-3.85-1.44-6.86-3.57-9.02-6.37
		c-2.16-2.81-3.63-6.26-4.43-10.37c-0.79-4.11-1.19-8.78-1.19-14.04l0-45.9h11.34l0,46.11c0,4.53,0.25,8.28,0.75,11.23
		c0.5,2.95,1.44,5.29,2.81,7.02c1.37,1.73,3.24,2.93,5.61,3.62c2.38,0.68,5.44,1.03,9.18,1.03c3.74,0,6.8-0.34,9.18-1.03
		c2.38-0.68,4.25-1.89,5.62-3.62c1.37-1.73,2.3-4.07,2.81-7.02c0.5-2.95,0.76-6.7,0.76-11.23l0-46.11h11.34l0,45.9
		c0,5.26-0.4,9.93-1.19,14.04c-0.79,4.1-2.27,7.56-4.43,10.37c-2.16,2.81-5.18,4.93-9.07,6.37
		C488.53,338.93,483.52,339.65,477.41,339.65z"/>
	<path class="st0" d="M579.89,339.66c-6.19,0-11.21-0.72-15.07-2.16c-3.85-1.44-6.86-3.57-9.02-6.37
		c-2.16-2.81-3.63-6.26-4.43-10.37c-0.79-4.11-1.19-8.78-1.19-14.04l0-45.9h11.34l0,46.11c0,4.53,0.25,8.28,0.75,11.23
		s1.44,5.29,2.81,7.02c1.37,1.73,3.24,2.93,5.61,3.62c2.38,0.68,5.44,1.03,9.18,1.03c3.74,0,6.8-0.34,9.18-1.03
		c2.38-0.68,4.25-1.89,5.62-3.62c1.37-1.73,2.3-4.07,2.81-7.02s0.76-6.7,0.76-11.23l0-46.11l11.34,0l0,45.9
		c0,5.26-0.4,9.93-1.19,14.04c-0.79,4.1-2.27,7.56-4.43,10.36c-2.16,2.81-5.18,4.93-9.07,6.37S586.01,339.66,579.89,339.66z"/>
	<path class="st0" d="M664.76,337.72h-11.34l0.01-76.89h28.94c9,0,15.66,1.7,19.98,5.08c4.32,3.39,6.48,8.93,6.48,16.63l0,3.46
		c0,5.83-1.24,10.42-3.73,13.77c-2.49,3.35-6.32,5.63-11.5,6.85l18.79,31.1h-13.18l-17.28-30.02h-17.17L664.76,337.72z
		 M697.49,283.95c0-2.74-0.25-4.95-0.75-6.64c-0.51-1.69-1.33-3.01-2.49-3.95c-1.15-0.93-2.7-1.57-4.64-1.89
		c-1.94-0.32-4.35-0.48-7.23-0.48h-17.6l0,26.56h17.6c2.88,0,5.29-0.16,7.23-0.48c1.95-0.33,3.49-0.97,4.64-1.94
		c1.15-0.97,1.98-2.3,2.49-3.99c0.5-1.69,0.75-3.91,0.75-6.64V283.95z"/>
</g>
<g>
	<path class="st1" d="M288.26,351.89h-29.54v21.54h27.21l-0.7,2.7h-26.51l0,25.05h-3.03l0-52h33.27L288.26,351.89z"/>
	<path class="st1" d="M350.83,383.81l-25.65,0l-7,17.38h-3.11l21.53-52h3.03l21.53,52h-3.26L350.83,383.81z M326.27,381.1l23.47,0
		L338,352.33L326.27,381.1z"/>
	<path class="st1" d="M396.62,349.19h19.2c5.86,0,10.05,0.99,12.6,2.96c2.54,1.97,3.81,5.08,3.81,9.31v1.03
		c0,1.7-0.22,3.2-0.66,4.49c-0.44,1.29-1.02,2.39-1.75,3.29c-0.73,0.9-1.56,1.66-2.49,2.26c-0.93,0.61-1.87,1.08-2.8,1.42
		c2.85,0.63,5.07,1.89,6.65,3.76c1.58,1.88,2.37,4.71,2.37,8.51v1.02c0,4.68-1.41,8.17-4.24,10.48c-2.83,2.31-7.37,3.46-13.64,3.46
		h-19.05L396.62,349.19z M399.65,398.57h16.01c5.28,0,9.08-0.87,11.39-2.63c2.31-1.75,3.46-4.65,3.46-8.69v-1.02
		c0-3.89-1.06-6.66-3.19-8.29c-2.13-1.63-5.62-2.45-10.49-2.45h-17.18L399.65,398.57z M399.65,351.82v21.03h17.26
		c4.2,0,7.29-0.83,9.29-2.48c1.99-1.65,2.99-4.28,2.99-7.89v-1.03c0-1.75-0.22-3.24-0.66-4.45c-0.44-1.22-1.19-2.2-2.26-2.96
		c-1.06-0.75-2.45-1.32-4.16-1.68c-1.71-0.37-3.81-0.55-6.3-0.55H399.65z"/>
	<path class="st1" d="M474.04,349.2h17.41c3.42,0,6.33,0.25,8.74,0.73c2.41,0.49,4.38,1.29,5.91,2.41s2.65,2.58,3.34,4.38
		c0.7,1.8,1.05,4.04,1.05,6.72v1.02c0,4.28-0.99,7.51-2.95,9.68c-1.97,2.17-5.13,3.57-9.48,4.2l15,22.86l-3.5,0l-14.61-22.57
		c-0.26,0-0.61,0.01-1.05,0.04c-0.44,0.02-1.26,0.04-2.45,0.04c-1.19,0-2.92,0-5.17,0c-2.25,0-5.32,0-9.21,0l0,22.5h-3.03
		L474.04,349.2z M477.07,351.9V376h14.38c3.06,0,5.61-0.17,7.66-0.51c2.05-0.34,3.68-0.95,4.89-1.83c1.22-0.88,2.09-2.06,2.61-3.54
		s0.78-3.37,0.78-5.66v-1.02c0-2.29-0.27-4.17-0.82-5.66c-0.54-1.49-1.44-2.67-2.68-3.54c-1.24-0.87-2.88-1.48-4.89-1.83
		c-2.02-0.34-4.54-0.51-7.54-0.51H477.07z"/>
	<path class="st1" d="M551.62,349.2h3.03l0,52h-3.03L551.62,349.2z"/>
	<path class="st1" d="M631.6,401.21l-33.74,0l0-52l34.44,0l-0.7,2.7h-30.7v21.18h29.46l-0.7,2.7H600.9l0,22.71h31.4L631.6,401.21z"
		/>
	<path class="st1" d="M708.95,401.22l-32.33-25.93l0,25.93h-3.03l0-52h3.03v24.18l30.01-24.17h4.12l-31.09,24.9l33.73,27.1H708.95z"
		/>
</g>
<g>
	<path class="st0" d="M182.49,370.94c6.44-0.06,12.71-0.19,18.79-0.35l-3.04,12.74c-5.25,0.16-10.98,0.29-17.16,0.35
		c-6.18,0.1-12.49,0.13-18.95,0.13c-14.57,0-26.73-1.22-36.47-3.65c-9.76-2.47-17.54-6.47-23.4-12.04
		c-5.83-5.6-10.02-12.84-12.58-21.74c-2.53-8.87-3.81-19.85-3.81-32.91v-28.56c0-13.06,1.28-24.04,3.81-32.91
		c2.56-8.9,6.79-16.1,12.74-21.61c5.92-5.51,13.77-9.48,23.5-11.91c6.43-1.6,13.93-2.69,22.47-3.23v-0.22l607.18-20.97l0.45,12.81
		L163.6,227.29c-0.48,0.19-0.96,0.29-1.44,0.29c-12.55,0-22.79,0.93-30.77,2.82c-7.97,1.89-14.15,5.06-18.57,9.44
		c-4.42,4.42-7.4,10.28-9.03,17.58c-1.6,7.33-2.4,16.49-2.4,27.5v28.56c0,11.33,0.93,20.75,2.79,28.21
		c1.86,7.49,5.12,13.38,9.8,17.7c4.64,4.32,10.89,7.36,18.66,9.09c7.81,1.73,17.64,2.59,29.49,2.59
		C169.27,371.07,176.05,371.04,182.49,370.94z"/>
</g>
</svg>
