<?xml version="1.0" encoding="utf-8"?>
<!-- Generator: Adobe Illustrator 26.5.0, SVG Export Plug-In . SVG Version: 6.00 Build 0)  -->
<svg version="1.1" id="Laag_2" xmlns="http://www.w3.org/2000/svg" xmlns:xlink="http://www.w3.org/1999/xlink" x="0px" y="0px"
	 viewBox="0 0 841.89 595.28" style="enable-background:new 0 0 841.89 595.28;" xml:space="preserve">
<style type="text/css">
	.st0{fill:#B73920;}
	.st1{fill:none;stroke:#622006;stroke-width:2.7338;stroke-miterlimit:10;}
	.st2{fill:#8D2E14;}
	.st3{fill:#622006;stroke:#622006;stroke-width:2.7338;stroke-miterlimit:10;}
	.st4{fill:#622006;}
	.st5{fill:none;stroke:#000000;stroke-width:2.7338;stroke-miterlimit:10;}
	.st6{fill:#792B0E;}
	.st7{fill:#F195BF;}
	.st8{fill:none;stroke:#000000;stroke-width:1.1212;stroke-miterlimit:10;}
</style>
<path class="st0" d="M-711.66,141.12c0,0-2.2,39.02,25.67,40.72c27.86,1.7,10.02,75.5,0,76.35c0,0,1.31-20.67-8.37-53.44
	c0,0,22.23,113.67-5.76,122.15c-28,8.48-20.59-74.65-20.59-74.65c0.82,21.21-6.59,54.29-20.59,53.44s-15.65-53.44-15.65-53.44
	s2.19,50.9-12.35,53.44c-22.23,10.18-18.94-51.75-18.94-51.75s1.65,72.98-15.65,72.95c-28.82-1.7-16.47-67.86-16.47-67.86
	s10.71-72.95,30.47-73.8c19.76-0.85,11.53-44.11,11.53-44.11H-711.66z"/>
<path class="st1" d="M-759.39,141.12c0,0,3.29,18.66,0,20.36s-3.29,17.81-3.29,17.81s-4.12,14.42-9.06,15.27
	c-4.94,0.85-15.65,7.63-15.65,16.12"/>
<path class="st1" d="M-771.74,194.57c0,0,11.53,5.94,7.41,11.03c-4.12,5.09-6.46,2.9,0.89,8.66"/>
<path class="st1" d="M-735.5,141.12c0,0-3.29,16.97,4.94,23.75c8.24,6.79,0,16.97,0,16.97s-3.58,8.48-0.97,12.72
	c2.61,4.24,14.14,0.85,18.26,3.39c4.12,2.54,6.59-3.39,6.59-3.39"/>
<path class="st1" d="M-729.74,218.32c0,0-10.36-4.24-6.42-7.63c3.94-3.39,14.74-6.27,14.74-6.27s-5.31-9.84-10.11-9.84"/>
<polygon class="st2" points="-662.11,194.57 -662.11,327.51 -527.06,327.51 -550.11,304.66 -632.46,304.66 -632.46,272.67 
	-581.41,272.67 -601.17,250.36 -633.29,250.36 -634.11,214.46 -618.47,214.46 -633.29,194.57 "/>
<polygon class="st3" points="-511.51,327.51 -511.51,194.57 -499.15,194.57 -466.21,276 -466.21,194.57 -449.74,194.57 
	-449.74,327.51 -468.68,327.51 -495.04,244.62 -495.04,327.51 "/>
<polygon class="st2" points="-439.86,194.57 -427.51,234.32 -415.16,214.44 -379.74,214.44 -379.74,436.33 -348.45,436.33 
	-348.45,214.26 -307.28,214.26 -296.57,234.32 -281.75,194.57 "/>
<polygon class="st0" points="-235.46,194.57 -183.58,436.33 -44.41,436.33 -44.41,386.28 -81.47,386.28 -81.47,413.42 
	-158.88,413.42 -207.46,194.57 "/>
<polygon class="st4" points="-576.56,436.33 -594.58,342.17 -620.21,342.17 -640.8,389.25 -668.8,389.25 -691.03,342.17 
	-714.91,342.17 -744.06,436.33 -721.5,422.75 -706.68,422.75 -700.09,382.89 -681.15,436.33 -628.45,436.33 -611.98,382.89 
	-603.74,417.67 -594.58,418.51 "/>
<polygon class="st2" points="-565.04,342.17 -515.62,342.17 -498.33,360.83 -527.06,360.83 -527.06,377.8 -480.63,377.8 
	-462.92,399 -527.06,399 -527.06,417.67 -449.74,417.67 -432.45,436.33 -565.04,436.33 "/>
<polygon class="st0" points="-622.68,194.57 -606.47,214.26 -518.1,214.26 -518.1,194.57 "/>
<polygon class="st0" points="-591.39,249.7 -566.99,272.61 -518.1,272.61 -518.1,249.7 "/>
<path class="st5" d="M-518.1,327.51"/>
<polygon class="st0" points="-518.1,327.51 -541.98,304 -518.1,304 "/>
<path class="st5" d="M-507.39,342.17"/>
<polygon class="st0" points="-507.39,342.17 -489.27,360.61 -387.16,360.61 -387.16,342.17 "/>
<polygon class="st0" points="-473.63,377.8 -455.51,399 -387.16,399 -387.16,377.8 "/>
<polygon class="st0" points="-439.86,416.82 -422.57,436.33 -387.16,436.33 -387.16,416.82 "/>
<path class="st4" d="M-245.1,194.57h-25.53l-70.82,241.76h29.65l20.59-75.72h35.41l14,75.72h48.59L-245.1,194.57z M-284.63,342.17
	l17.29-92.46l11.53,92.46H-284.63z"/>
<path class="st6" d="M-815.61,304h17.43c0,0-0.29,17.8-8.71,17.43C-815.32,321.04-815.61,304-815.61,304z"/>
<path class="st6" d="M-710.59,304h17.43c0,0-0.29,17.8-8.71,17.43C-710.3,321.04-710.59,304-710.59,304z"/>
<path class="st7" d="M-163.64,394.08c0.1-0.09,0.2-0.17,0.3-0.27c4.96,2.38,10.93,3.45,17.02,2.67c9.66-1.24,16.99-6.76,19.56-13.75
	c7.5-2.57,12.04-8.97,10.52-15.72c-0.92-4.06-3.85-7.45-7.82-9.64c4.18-3.09,6.3-6.58,5.53-9.98c-0.52-2.31-2.32-4.33-5.09-5.97
	c10.68-4.04,17.06-13.4,14.84-23.24c-1.4-6.19-5.93-11.36-12.05-14.63c4.34-4.61,6.35-10.61,4.96-16.8
	c-1.97-8.75-10.19-15.44-20.32-17.64c0-0.02-0.01-0.04-0.01-0.06c-2.56-11.37-16.18-19.1-30.4-17.28c-1.68,0.21-3.28,0.56-4.81,1.01
	c-0.1-0.54-0.21-1.08-0.33-1.62c-3.2-14.19-12.91-24.79-21.68-23.67c-3.38,0.43-6.12,2.55-8.03,5.78l35.97,159.45L-163.64,394.08z"
	/>
<path class="st8" d="M-169.25,277.73c0,0,29.18,19.61,19.65,26.54"/>
<path class="st8" d="M-171.32,326.89c0,0,5.96,24.45,21.67,20.52"/>
<path class="st8" d="M-158.82,370.89c0,0,13.32-6.52,25.56,1.08"/>
<path class="st8" d="M-178.89,260.04c0,0-11.5,26.38,8.9,35.31"/>
<path class="st8" d="M-148.83,327.84c0,0,8.62-11.34,23.84-5.08"/>
</svg>
